<svg width="500" height="500" viewBox="0 0 500 500" fill="none" xmlns="http://www.w3.org/2000/svg">
<path d="M373.873 279.67C373.131 286.345 369.175 289.683 362.005 289.683C358.296 289.683 355.329 288.571 353.104 286.345C351.002 284.12 349.951 280.906 349.951 276.703C349.951 269.532 350.26 261.868 350.879 253.709C351.62 245.426 352.486 237.081 353.475 228.675C354.587 220.268 355.638 212.233 356.627 204.568C352.177 210.996 347.479 217.61 342.534 224.41C337.589 231.209 332.644 237.823 327.699 244.251C322.754 250.68 317.995 256.49 313.42 261.682C308.97 266.751 304.89 270.83 301.182 273.921C297.473 276.888 294.382 278.372 291.91 278.372C285.976 278.372 280.846 276.208 276.519 271.881C272.192 267.431 270.028 261.806 270.028 255.007C270.028 252.658 270.276 249.505 270.77 245.549C271.265 241.47 271.883 237.143 272.625 232.569C273.366 227.995 273.984 223.668 274.479 219.588C274.973 215.509 275.221 212.295 275.221 209.946C275.221 209.946 275.221 209.822 275.221 209.575C275.344 208.957 275.221 208.648 274.85 208.648C274.355 208.648 272.995 210.317 270.77 213.654C268.545 216.869 265.825 221.072 262.611 226.264C259.397 231.456 255.997 236.896 252.412 242.582C248.951 248.269 245.675 253.585 242.584 258.53C239.617 263.475 237.144 267.307 235.166 270.027C232.447 274.23 229.912 276.888 227.564 278.001C225.215 279.113 222.495 279.67 219.404 279.67C215.078 279.67 211.678 278.248 209.205 275.405C206.857 272.438 205.682 268.296 205.682 262.98C205.682 260.755 206.053 257.294 206.795 252.596C207.66 247.898 208.711 242.706 209.947 237.019C211.183 231.209 212.42 225.584 213.656 220.145C215.016 214.582 216.19 209.884 217.179 206.052C218.292 200.983 219.837 197.46 221.815 195.482C223.917 193.38 226.575 192.329 229.789 192.329C237.33 192.329 241.1 196.038 241.1 203.455C241.1 204.815 240.668 207.04 239.802 210.131C238.937 213.222 237.886 216.807 236.65 220.886C235.414 224.966 234.116 229.169 232.756 233.496C231.396 237.699 230.283 241.655 229.418 245.364C232.385 240.172 235.599 234.609 239.061 228.675C242.522 222.741 246.045 216.93 249.63 211.244C253.339 205.557 256.986 200.365 260.571 195.667C264.28 190.969 267.927 187.261 271.512 184.541C275.097 181.698 278.497 180.276 281.711 180.276C284.925 180.276 288.078 181.45 291.168 183.799C294.259 186.024 296.793 188.93 298.771 192.515C300.873 195.976 301.923 199.685 301.923 203.641C301.923 207.35 301.429 211.8 300.44 216.992C299.451 222.184 298.338 227.624 297.102 233.311C295.866 238.997 295 244.56 294.506 250C298.709 245.302 303.16 239.986 307.857 234.052C312.555 227.995 317.376 221.752 322.321 215.323C327.266 208.895 332.088 202.652 336.785 196.594C341.607 190.537 346.057 185.035 350.137 180.09C354.34 175.145 358.049 171.251 361.263 168.408C364.477 165.441 366.95 163.958 368.68 163.958C373.749 163.958 377.705 165.317 380.548 168.037C383.515 170.633 384.999 175.207 384.999 181.759C384.999 185.839 384.69 191.155 384.072 197.707C383.577 204.259 382.835 211.367 381.846 219.032C380.981 226.573 379.992 234.238 378.879 242.026C377.89 249.691 376.963 256.799 376.098 263.351C375.232 269.903 374.491 275.343 373.873 279.67Z" fill="black"/>
<path d="M152.931 318.284C146.008 318.284 140.321 316.801 135.871 313.834C131.297 310.99 129.01 306.787 129.01 301.224C129.01 297.639 130.864 294.301 134.573 291.211C138.158 288.12 143.165 284.968 149.593 281.753C156.022 278.663 163.501 275.201 172.031 271.369C174.009 264.57 176.049 255.731 178.15 244.852C180.376 233.849 182.786 220.127 185.382 203.685C186.619 195.649 187.793 189.406 188.906 184.956C190.018 180.505 191.131 177.291 192.244 175.313C193.356 173.335 194.469 172.161 195.581 171.79C196.818 171.295 198.116 171.048 199.476 171.048C200.835 171.048 202.752 171.79 205.224 173.273C207.697 174.633 209.922 176.549 211.9 179.022C213.878 181.371 214.867 184.152 214.867 187.366C214.867 189.097 214.558 191.631 213.94 194.969C213.321 198.307 212.271 201.954 210.787 205.91C209.304 209.866 207.264 213.637 204.668 217.222C201.206 234.529 197.992 249.055 195.025 260.799C205.904 255.36 209.815 254.63 219.829 247.954C225.496 244.105 226.495 252.49 232.91 246.368C237.83 241.674 248.5 222.544 251.398 218.52C252.387 217.283 253.314 216.356 254.179 215.738C255.045 215.12 256.219 214.811 257.703 214.811C259.804 214.811 261.349 215.553 262.338 217.036C263.327 218.52 263.822 220.436 263.822 222.785C263.822 227.977 257.822 229.89 253.495 235.083C249.292 240.275 247.38 248.746 240.086 253.938C232.792 259.007 224.633 263.952 215.609 268.773C206.708 273.718 197.559 278.539 188.164 283.237C184.826 293.003 181.365 300.359 177.78 305.304C174.318 310.372 170.548 313.772 166.468 315.503C162.388 317.357 157.876 318.284 152.931 318.284ZM202.443 155.471C199.105 155.471 196.261 154.482 193.913 152.504C191.564 150.403 190.389 147.065 190.389 142.491C190.389 139.153 191.255 136.062 192.985 133.219C194.84 130.252 197.189 127.903 200.032 126.173C202.875 124.442 205.842 123.576 208.933 123.576C213.631 123.576 217.463 124.936 220.43 127.656C223.52 130.376 225.066 133.837 225.066 138.04C225.066 141.873 223.83 145.087 221.357 147.683C218.885 150.156 215.794 151.392 212.085 151.392C211.962 151.392 211.838 151.392 211.714 151.392C211.591 151.392 211.467 151.392 211.343 151.392C209.366 153.123 207.697 154.235 206.337 154.73C205.1 155.224 203.802 155.471 202.443 155.471Z" fill="black"/>
</svg>
